<?xml version="1.0" encoding="UTF-8"?>
<svg id="Calque_1" data-name="Calque 1" xmlns="http://www.w3.org/2000/svg" viewBox="0 0 141.66 141.73">
  <defs>
    <style>
      .cls-1 {
        fill: #000000;
      }
    </style>
  </defs>
  <path class="cls-1" d="m67.8.03c41.33-1.15,72.25,30.58,73.79,67.61,1.7,40.73-29.67,72.53-67.69,74.04C33.04,143.29,1.6,111.83.06,73.98-1.56,34.03,28.9,2.12,67.8.03ZM6.14,70.86c-.04,35.63,28.95,64.69,64.61,64.75,35.64.07,64.69-28.88,64.81-64.56.12-35.69-28.99-64.87-64.72-64.86-35.65,0-64.67,29-64.7,64.66Z"/>
  <path class="cls-1" d="m72.63,74.18c0-6.84,0-13.67,0-20.51q0-2.7,2.8-2.71,3.86,0,3.86,3.96c0,12.07.02,24.14-.04,36.2,0,1,.85,2.55-1.03,2.93-2.78.56-3.75.08-4.6-2.16-2.69-7.05-5.39-14.1-8.08-21.15-.23-.61-.49-1.21-.74-1.81-.19.04-.38.07-.57.11,0,.74,0,1.48,0,2.22,0,6.77-.05,13.55.04,20.32.02,1.86-.39,2.62-2.45,2.55-4.21-.15-4.22-.03-4.22-4.33,0-12.14-.02-24.28.04-36.41,0-.8.72-2.31.93-2.28,1.6.23,3.69-1.31,4.71,1.32,2.61,6.7,5.34,13.36,8.02,20.04.25.62.54,1.23.81,1.85.17-.04.35-.09.52-.13Z"/>
  <path class="cls-1" d="m86.34,50.74c4.82.27,9.82.26,14.74.91,3.87.51,5.84,3.46,6.47,7.19.28,1.66.38,3.37.39,5.06.05,5.22.02,10.45.01,15.67,0,.92-.02,1.84-.09,2.75-.66,8.41-4.18,11.71-12.57,11.77-2.61.02-5.22-.02-7.83.02-1.03.01-1.59-.28-1.58-1.42.03-13.62.04-27.24.06-40.86,0-.19.14-.39.41-1.07Zm6.2,21.88c0,4.23,0,8.45,0,12.68q0,3.13,3.13,3.02c3.25-.11,5.23-1.37,5.28-3.99.15-7.88.14-15.76.01-23.63-.04-2.33-1.48-3.5-3.8-3.8-.9-.12-1.83-.06-2.74-.16-1.53-.18-1.93.53-1.91,1.95.06,4.65.02,9.3.02,13.94Z"/>
  <path class="cls-1" d="m14.84,75.67c1.9,0,3.8-.1,5.67.07.43.04,1.03.98,1.11,1.56,1.63,11.21,6.31,20.95,14.58,28.66,3.57,3.33,7.92,5.81,11.9,8.69,1.1.8,1.98.69,2.89-.38,1.46-1.72,3.04-3.33,4.51-4.92,5.97,6.08,11.66,11.88,17.11,17.43-26.96,2.52-55.98-20.38-57.78-51.12Z"/>
  <path class="cls-1" d="m127.02,65.95c-2.03,0-3.92.1-5.79-.07-.44-.04-1.06-.96-1.15-1.55-2.55-16.52-11.23-28.74-25.69-37.01-1.77-1.01-2.97-.97-4.27.65-1.23,1.53-2.68,2.89-3.92,4.2-5.88-5.96-11.58-11.75-17-17.24,23.39-2.59,54.65,16.6,57.82,51.01Z"/>
  <path class="cls-1" d="m32.49,56.77q-.68-5.8,4.4-5.8c5.01,0,10.01.05,15.02-.03,1.53-.03,2.13.37,2.08,2-.14,4.34.47,3.73-3.66,3.78-1.19.02-2.37,0-3.88,0,0,1.12,0,2.01,0,2.9,0,10.65-.05,21.29.05,31.94.02,2.08-.64,2.65-2.64,2.56-4.57-.21-4.03.66-4.04-4.06-.03-10.08,0-20.16,0-30.25v-3.05h-7.29Z"/>
</svg>
