<svg id="Groupe_10059" data-name="Groupe 10059" xmlns="http://www.w3.org/2000/svg" width="22.069" height="22.089" viewBox="0 0 22.069 22.089">
    <path id="Tracé_3294" data-name="Tracé 3294" d="M128.64,25.892v-.5l0,.5a3.182,3.182,0,0,0-.018,6.364,3.194,3.194,0,0,0,2.275-.949,3.148,3.148,0,0,0,.925-2.255A3.184,3.184,0,0,0,128.64,25.892Z" transform="translate(-117.61 -18.047)" fill="#1c1c2b"/>
    <path id="Tracé_3295" data-name="Tracé 3295" d="M143.479,27.747a6.34,6.34,0,0,0-.957-3.19,5.735,5.735,0,0,0-3.888-2.588,14.283,14.283,0,0,0-2.709-.225q-3.347-.027-6.691,0a21.706,21.706,0,0,0-2.195.14,5.768,5.768,0,0,0-5.283,4.994,16.419,16.419,0,0,0-.195,2.472c-.028,2.255-.022,4.512-.006,6.769a21.737,21.737,0,0,0,.138,2.2,6.123,6.123,0,0,0,1.16,3.032,5.618,5.618,0,0,0,3.672,2.235,15.366,15.366,0,0,0,2.626.237c2.59,0,5.18-.034,7.77-.088a9.4,9.4,0,0,0,1.862-.237,5.62,5.62,0,0,0,4.384-4.009,9.672,9.672,0,0,0,.369-2.771c.024-1.32.006-2.642.006-3.964l.068,0C143.569,31.081,143.549,29.412,143.479,27.747Zm-6.551,9.343a6.108,6.108,0,0,1-4.364,1.81h-.014a6.125,6.125,0,1,1,4.378-1.81Zm3.292-9.684a1.763,1.763,0,0,1-1.258.524h-.024a1.814,1.814,0,0,1,.008-3.627,1.786,1.786,0,0,1,1.8,1.792A1.831,1.831,0,0,1,140.221,27.406Z" transform="translate(-121.542 -21.73)" fill="#1c1c2b"/>
</svg>
