<svg xmlns="http://www.w3.org/2000/svg" width="17.325" height="16.55" viewBox="0 0 17.325 16.55">
    <path id="Tracé_23765" data-name="Tracé 23765" d="M151.23,39.661h-3.718V28.488h3.718Zm-1.864-12.686h-.02a2.13,2.13,0,1,1,.02,0Zm15.246,12.686h-3.722V33.688c0-1.513-.53-2.528-1.866-2.528a2.048,2.048,0,0,0-1.916,1.354,2.56,2.56,0,0,0-.114.9v6.246h-3.718c.05-10.128,0-11.173,0-11.173h3.718v1.583a3.649,3.649,0,0,1,3.334-1.84c2.446,0,4.284,1.593,4.284,5.024Z" transform="translate(-147.288 -23.111)" fill="#1c1c2b"/>
</svg>
