<svg xmlns="http://www.w3.org/2000/svg" width="19.16" height="15.563" viewBox="0 0 19.16 15.563">
    <path id="Tracé_23766" data-name="Tracé 23766" d="M90.683,27.235c.012.171.012.341.012.512a11.176,11.176,0,0,1-17.2,9.41,8.179,8.179,0,0,0,.947.048,7.864,7.864,0,0,0,4.875-1.677A3.938,3.938,0,0,1,75.644,32.8a4.751,4.751,0,0,0,.742.062,4.087,4.087,0,0,0,1.033-.134,3.927,3.927,0,0,1-3.148-3.854v-.048a3.954,3.954,0,0,0,1.774.5,3.934,3.934,0,0,1-1.216-5.251,11.171,11.171,0,0,0,8.1,4.109,4.488,4.488,0,0,1-.1-.9,3.932,3.932,0,0,1,6.8-2.686,7.712,7.712,0,0,0,2.492-.949,3.906,3.906,0,0,1-1.725,2.165,7.837,7.837,0,0,0,2.261-.608A8.453,8.453,0,0,1,90.683,27.235Z" transform="translate(-73.493 -23.357)" fill="#1c1c2b"/>
</svg>
