<svg xmlns="http://www.w3.org/2000/svg" xmlns:xlink="http://www.w3.org/1999/xlink" width="26.232" height="26.947" viewBox="0 0 26.232 26.947">
  <defs>
    <clipPath id="clip-path">
      <rect width="26.232" height="26.947" fill="none"/>
    </clipPath>
  </defs>
  <g id="Grille_de_répétition_3" data-name="Grille de répétition 3" clip-path="url(#clip-path)">
    <g id="Groupe_9736" data-name="Groupe 9736" transform="translate(-305.783 -303.07)">
      <path id="Tracé_23723" data-name="Tracé 23723" d="M311.381,531.968c-.563-.587-1.056-1.119-1.57-1.63a1.244,1.244,0,0,1,.607-2.194c2.352-.579,4.71-1.139,7.049-1.766a1.249,1.249,0,0,1,1.577,1.535c-.57,2.373-1.1,4.755-1.647,7.134a1.224,1.224,0,0,1-.885,1.012,1.208,1.208,0,0,1-1.263-.389c-.512-.537-1.029-1.07-1.544-1.6l-.126-.029a1.421,1.421,0,0,1-.168.275q-2.432,2.487-4.871,4.967a1.581,1.581,0,1,1-2.277-2.19q2.117-2.156,4.243-4.3C310.8,532.491,311.108,532.222,311.381,531.968Z" transform="translate(0 -211.26)" fill="#707070"/>
      <path id="Tracé_23724" data-name="Tracé 23724" d="M350.874,315.109a12.112,12.112,0,0,1-10.081,11.882c-.362.06-.726.1-1.091.141a.72.72,0,0,1-.888-.6.8.8,0,0,1,.756-.895,10.049,10.049,0,0,0,2.746-.592,10.22,10.22,0,0,0,6.869-8.424,10.525,10.525,0,0,0-20.8-3.247c-.048.3-.081.6-.111.905a.811.811,0,0,1-.544.76.717.717,0,0,1-.963-.767,10.412,10.412,0,0,1,.685-3.243,11.74,11.74,0,0,1,9.688-7.825,11.978,11.978,0,0,1,13.505,9.882C350.763,313.752,350.8,314.433,350.874,315.109Z" transform="translate(-19.858)" fill="#707070"/>
      <path id="Tracé_23725" data-name="Tracé 23725" d="M391.487,360.839a7.6,7.6,0,0,0-7.49,6.623c-.106.867-.192.94-1.056.9a.454.454,0,0,1-.486-.537,9.146,9.146,0,0,1,15.535-5.832,8.627,8.627,0,0,1,2.4,5.024,9.009,9.009,0,0,1-4.932,9.5,8.722,8.722,0,0,1-3.346.9c-.451.028-.614-.139-.612-.6,0-.179.011-.359,0-.537-.02-.271.107-.36.363-.371a7.276,7.276,0,0,0,3.908-1.336,7.628,7.628,0,0,0,2.658-9.168,6.852,6.852,0,0,0-5.448-4.381C392.488,360.926,391.984,360.9,391.487,360.839Z" transform="translate(-72.549 -53.276)" fill="#707070"/>
    </g>
  </g>
</svg>
