<?xml version="1.0" encoding="UTF-8"?>
<svg id="Calque_1" data-name="Calque 1" xmlns="http://www.w3.org/2000/svg" viewBox="0 0 198.33 198.35">
  <defs>
    <style>
      .cls-1 {
        fill: #b7b7b7;
      }

      .cls-2 {
        fill: #9d9d9d;
      }

      .cls-3 {
        fill: #fff;
      }

      .cls-4 {
        fill: #868686;
      }

      .cls-5 {
        fill: #e3e3e2;
      }

      .cls-6 {
        fill: #010101;
      }
    </style>
  </defs>
  <path class="cls-5" d="m198.33,99.17c0,36.97-20.22,69.2-50.2,86.23-2.23,1.28-4.52,2.47-6.86,3.57-.01,0-.01.01-.03.01-6.98,3.29-14.43,5.79-22.19,7.36-6.43,1.31-13.08,1.99-19.89,1.99s-14.03-.74-20.71-2.17h-.03c-5.12-1.09-10.09-2.57-14.88-4.42l-2.23-.89C25.32,175.99,0,140.54,0,99.17,0,44.4,44.39,0,99.16,0s99.17,44.4,99.17,99.17Z"/>
  <g>
    <g>
      <g>
        <g>
          <g>
            <polygon class="cls-3" points="119.85 174.49 105.83 180.92 91.39 174.49 91.39 147.95 119.85 147.95 119.85 174.49"/>
            <path class="cls-6" d="m90.55,147.1v27.94l15.28,6.81.49-.22.8-.37,13.58-6.23v-27.92h-30.15Zm28.46,26.85l-10.7,4.89-2.29,1.06-.19.09-13.58-6.05v-25.15h26.76v25.17Z"/>
          </g>
          <g>
            <g>
              <g>
                <g>
                  <path class="cls-3" d="m57.46,101.15s-4.1-17.24-13.96-11.77c-9.85,5.47-3.01,31.74,16.42,24.35l-2.46-12.59Z"/>
                  <path class="cls-6" d="m58.8,103.68l-.52-2.69v-.03c-.06-.19-.6-2.44-1.76-5.04-.21-.51-.46-1.01-.71-1.53-.22-.43-.46-.86-.73-1.28-1.26-2.13-2.95-4.11-5.09-5.04-2.1-.92-4.34-.77-6.69.49-.07.03-.13.06-.21.1-5.67,3.14-6.01,11.87-3.09,18.16,2.25,4.82,6.75,9.07,13.39,9.07,1.01,0,2.07-.1,3.18-.31.27-.04.55-.1.82-.18.28-.06.55-.13.83-.22.65-.18,1.31-.39,1.99-.65l.67-.25-2.08-10.59Zm-17.27,2.42c-2.62-5.62-2.29-13.39,2.38-15.98.12-.06.22-.13.34-.18,1.04-.54,2.02-.8,2.98-.8.71,0,1.4.15,2.08.45,2.48,1.1,4.31,4,5.5,6.65.3.62.55,1.25.76,1.83.39.97.65,1.81.82,2.39.15.48.22.79.24.86l.36,1.86.62,3.17.91,4.61.43,2.23c-.39.13-.76.25-1.12.34-.28.09-.57.16-.83.22-.28.07-.55.13-.82.18-9.33,1.77-13.51-5.38-14.65-7.84Z"/>
                </g>
                <path class="cls-4" d="m57.73,106.63s-7.11-16.14-11.77-9.3c-4.65,6.84,2.46,16.14,13.68,13.41l-1.92-4.1Z"/>
              </g>
              <g>
                <g>
                  <path class="cls-3" d="m151.05,101.15s4.1-17.24,13.96-11.77c9.85,5.47,3.01,31.74-16.42,24.35l2.46-12.59Z"/>
                  <path class="cls-6" d="m165.42,88.66c-2.01-1.13-3.96-1.44-5.79-.98-.39.09-.74.22-1.12.39-2.02.88-3.63,2.68-4.86,4.66-.25.42-.51.83-.71,1.25-.27.48-.51.97-.73,1.44-.79,1.7-1.32,3.29-1.64,4.33-.21.68-.33,1.15-.34,1.22l-2.6,13.31.65.25c.77.3,1.53.54,2.26.73.28.09.57.15.83.21.28.06.55.12.82.16,1.01.18,1.99.27,2.93.27,6.62,0,11.14-4.25,13.37-9.07,2.93-6.29,2.57-15.02-3.08-18.16Zm-12.84,25.35c-.27-.06-.54-.1-.82-.18-.27-.06-.55-.12-.83-.21-.45-.12-.91-.25-1.38-.42l.43-2.23.89-4.54,1-5.1c.01-.06.06-.25.15-.58.09-.3.21-.71.37-1.2.21-.61.46-1.35.79-2.16.22-.54.48-1.1.74-1.67,1.2-2.5,2.95-5.1,5.28-6.13.15-.07.31-.13.46-.18,1.53-.51,3.15-.28,4.94.71,4.66,2.59,5,10.35,2.38,15.98-1.13,2.42-5.25,9.48-14.4,7.9Z"/>
                </g>
                <path class="cls-4" d="m150.77,106.63s7.11-16.14,11.77-9.3c4.65,6.84-2.46,16.14-13.68,13.41l1.92-4.1Z"/>
              </g>
            </g>
            <g>
              <g>
                <ellipse class="cls-3" cx="104.39" cy="100.2" rx="48.85" ry="55.69"/>
                <path class="cls-6" d="m152.37,100.93c0,.89-.03,1.79-.07,2.66.27-.51.58-1.06.91-1.62.01-.22.01-.43.01-.64-.28-.1-.55-.24-.85-.4Zm1.55-5.21c-.03-.54-.07-1.07-.12-1.59-.04-.48-.1-.95-.15-1.41-3.23-27.65-24.1-49.06-49.25-49.06s-46.23,21.6-49.31,49.45c-.04.48-.1.97-.15,1.46-.04.55-.09,1.12-.12,1.68-.07,1.31-.12,2.63-.12,3.96v.54c0,.1,0,.19.01.3.03,3.48.36,6.89.94,10.19.16.91.34,1.83.54,2.72.06.27.12.55.18.82.07.27.13.55.21.82,4.66,18.7,17.58,33.48,33.98,38.91l.85.27c.28.09.57.18.85.25,3.9,1.12,7.96,1.71,12.15,1.71,5.07,0,9.98-.88,14.61-2.5.28-.09.57-.19.85-.3s.57-.22.85-.33c15.2-6.02,27.07-20.25,31.49-37.98.07-.27.13-.55.21-.82.06-.27.12-.54.18-.8.21-.92.39-1.86.55-2.8.55-3.14.86-6.37.94-9.65,0-.31.01-.64.01-.95v-.4c0-1.5-.06-3-.16-4.48Zm-1.62,7.87c-.13,2.57-.43,5.1-.88,7.56-.15.83-.31,1.65-.49,2.47-.06.27-.12.55-.19.82-.06.28-.12.55-.19.82-4.24,16.96-15.44,30.57-29.84,36.53-.28.12-.57.22-.85.34l-.85.31c-4.61,1.7-9.52,2.6-14.61,2.6-4.2,0-8.27-.62-12.15-1.77l-.85-.27c-.28-.09-.57-.19-.85-.28-15.6-5.38-27.88-19.61-32.32-37.55-.07-.27-.15-.55-.21-.82-.06-.27-.12-.55-.18-.82-.18-.8-.34-1.59-.48-2.41-.42-2.28-.7-4.61-.85-6.99-.03-.45-.04-.88-.06-1.32-.04-.79-.06-1.56-.06-2.35v-.27c0-.77.01-1.53.04-2.29.01-.67.06-1.34.09-1.99,1.93-28.25,22.66-50.56,47.87-50.56s45.68,22.05,47.81,50.06c.04.62.09,1.25.12,1.87.03.76.04,1.5.06,2.26v.65c0,.24,0,.49-.01.73,0,.89-.03,1.79-.07,2.66Z"/>
              </g>
              <path class="cls-6" d="m52.26,92.12s1.09,12.59,7.39,11.49c6.29-1.09,4.38-22.17,5.47-21.89,1.09.27,9.85,3.01,16.14-4.65,6.29-7.66,7.94-18.33,9.58-17.51,1.64.82,11.77,12.31,27.64,6.02,15.87-6.29,17.99-6.16,18.54-4.79.55,1.37-3.22,24.49,12.93,38.45,16.14,13.96,9.3-37.22,0-42.69,0,0-1.92-.27,3.83-4.93,5.75-4.65,10.12-20.25,2.46-22.71-7.66-2.46-15.32,10.95-16.14,9.3-.82-1.64-4.93-19.15-18.88-17.24-13.96,1.92-13.68,15.32-14.78,14.78-1.09-.55-21.07-18.88-44.88-11.77-23.81,7.11-16.42,20.52-16.69,22.99s-19.98-.27-16.42,17.51c3.56,17.79,13.13,14.5,13.41,16.14.27,1.64-1.09,13.13,10.4,11.49Z"/>
              <g>
                <path class="cls-6" d="m89.2,135.91s12.31,12.59,29.01-1.37c0,0,1.64,0,1.37,2.19-.27,2.19-7.11,8.21-17.51,7.94-13.98-.37-16.42-10.95-12.86-8.76Z"/>
                <g>
                  <g>
                    <g>
                      <ellipse class="cls-6" cx="88.66" cy="99.51" rx="3.01" ry="6.29"/>
                      <ellipse class="cls-6" cx="119.58" cy="99.51" rx="3.01" ry="6.29"/>
                    </g>
                    <path class="cls-6" d="m103.71,101.7s2.19,22.44,1.09,22.71c-1.09.27-8.21-1.92-8.76,1.92-.55,3.83,6.84,6.02,10.12,4.65,3.28-1.37-7.94-2.46-5.75-3.28,2.19-.82,7.39.82,7.66-2.74.27-3.56-3.56-32.84-4.38-23.26Z"/>
                  </g>
                  <path class="cls-1" d="m137.09,113.47c0,3.78-3.06,6.84-6.84,6.84s-6.84-3.06-6.84-6.84,3.06-6.84,6.84-6.84,6.84,3.06,6.84,6.84Z"/>
                  <circle class="cls-1" cx="80.72" cy="113.47" r="6.84"/>
                </g>
              </g>
            </g>
          </g>
        </g>
        <path class="cls-2" d="m148.13,185.41c-2.23,1.28-4.52,2.47-6.86,3.57-.01,0-.01.01-.03.01-6.98,3.29-14.43,5.79-22.19,7.36-6.43,1.31-13.08,1.99-19.89,1.99s-14.03-.74-20.71-2.17h-.03c-5.12-1.09-10.09-2.57-14.88-4.42,1.68-2.62,3.91-5.85,6.56-9.04,3.87-4.72,8.6-9.28,13.72-11.6,1.81-.83,3.67-1.37,5.56-1.55.36-.03.74,0,1.16.09.27.04.55.13.85.22.27.09.55.21.85.33,3.63,1.52,8.49,5.28,12.06,6.89h.01c1.06.48,1.98.76,2.74.74.65-.01,1.23-.06,1.76-.15,3.93-.67,3.85-3.27,4.61-3.12.8-.06,4.24-4.73,5.58-5.09.06-.03.12-.04.16-.04.24,0,.46,0,.68-.01.31,0,.58,0,.85-.01,1.49-.04,2.66-.15,6.01.16.92.09,1.84.25,2.75.52,7.17,1.98,13.83,8.93,18.67,15.32Z"/>
      </g>
      <g>
        <path class="cls-1" d="m90.5,167.38s13.34,8.62,17.44,9.03c4.1.41-6.77,10.67-6.77,10.67l-18.06-16.62s3.49-5.13,7.39-3.08Z"/>
        <path class="cls-1" d="m122.55,166.55s-13.34,8.62-17.44,9.03c-4.1.41,6.77,10.67,6.77,10.67l18.06-16.62s-3.49-5.13-7.39-3.08Z"/>
      </g>
    </g>
    <path class="cls-6" d="m133.13,59.43s.24,35.84,18.28,33.01l-.96-2.35s-12.42,1.6-15.32-31.16l-2,.5Z"/>
  </g>
</svg>