<svg id="Groupe_9404" data-name="Groupe 9404" xmlns="http://www.w3.org/2000/svg" xmlns:xlink="http://www.w3.org/1999/xlink" width="45.282" height="45.492" viewBox="0 0 45.282 45.492">
  <defs>
    <clipPath id="clip-path">
      <rect id="Rectangle_3975" data-name="Rectangle 3975" width="45.282" height="45.492" fill="#efcc0b"/>
    </clipPath>
  </defs>
  <g id="Groupe_9354" data-name="Groupe 9354" clip-path="url(#clip-path)">
    <path id="Tracé_23649" data-name="Tracé 23649" d="M102.836,0a14.115,14.115,0,0,1,1.437.416A5.685,5.685,0,0,1,106.346,9.6c-2.41,2.669-4.845,5.314-7.27,7.97Q92.744,24.5,86.4,31.424a3.938,3.938,0,0,1-1.241.892c-2.125.965-4.269,1.89-6.412,2.815a2.725,2.725,0,0,1-3.763-3.4q1.129-3.454,2.305-6.893a2.89,2.89,0,0,1,.592-.974Q87.811,12.973,97.755,2.094A5.936,5.936,0,0,1,101.389.062.385.385,0,0,0,101.5,0ZM86.3,25.745c.184-.2.334-.357.483-.519L99.927,10.837c1.188-1.3,2.384-2.592,3.558-3.9a1.788,1.788,0,0,0-2.617-2.438c-.167.167-.323.346-.483.521L88.47,18.06l-4.81,5.27L86.3,25.745M79.5,30.54l4.217-1.856-2.754-2.515L79.5,30.54" transform="translate(-62.598)" fill="#efcc0b"/>
    <path id="Tracé_23650" data-name="Tracé 23650" d="M20.717,66.981c-3.893,0-7.786.036-11.678-.01A8.708,8.708,0,0,1,.8,61.736a8.416,8.416,0,0,1-.8-3.745c0-7.771-.017-15.542,0-23.313a8.813,8.813,0,0,1,6.979-8.743,9.679,9.679,0,0,1,2.156-.225c5.536-.018,11.072-.011,16.608-.009a1.985,1.985,0,0,1,2.228,2.117,1.915,1.915,0,0,1-1.737,1.774c-.221.018-.444.02-.665.02q-8.215,0-16.43,0a4.847,4.847,0,0,0-4.741,2.9,5.358,5.358,0,0,0-.475,2.183q-.049,11.656-.016,23.313a4.961,4.961,0,0,0,5.107,5.063q11.7.01,23.4,0A4.977,4.977,0,0,0,37.566,57.9q.007-8.1,0-16.208a1.977,1.977,0,0,1,1.4-2.068A1.95,1.95,0,0,1,41.459,41.3a3.614,3.614,0,0,1,.018.443c0,5.4.038,10.806-.012,16.208a8.689,8.689,0,0,1-5.236,8.235,8.592,8.592,0,0,1-3.833.8q-5.839,0-11.679,0" transform="translate(0 -21.502)" fill="#efcc0b"/>
  </g>
</svg>
