<svg xmlns="http://www.w3.org/2000/svg" width="17.848" height="20.398" viewBox="0 0 17.848 20.398">
  <path id="Icon_awesome-calendar-alt" data-name="Icon awesome-calendar-alt" d="M0,18.485A1.913,1.913,0,0,0,1.912,20.4H15.936a1.913,1.913,0,0,0,1.912-1.912V7.649H0Zm12.749-7.808a.479.479,0,0,1,.478-.478H14.82a.479.479,0,0,1,.478.478V12.27a.479.479,0,0,1-.478.478H13.227a.479.479,0,0,1-.478-.478Zm0,5.1a.479.479,0,0,1,.478-.478H14.82a.479.479,0,0,1,.478.478V17.37a.479.479,0,0,1-.478.478H13.227a.479.479,0,0,1-.478-.478Zm-5.1-5.1a.479.479,0,0,1,.478-.478H9.721a.479.479,0,0,1,.478.478V12.27a.479.479,0,0,1-.478.478H8.127a.479.479,0,0,1-.478-.478Zm0,5.1a.479.479,0,0,1,.478-.478H9.721a.479.479,0,0,1,.478.478V17.37a.479.479,0,0,1-.478.478H8.127a.479.479,0,0,1-.478-.478Zm-5.1-5.1a.479.479,0,0,1,.478-.478H4.621a.479.479,0,0,1,.478.478V12.27a.479.479,0,0,1-.478.478H3.028a.479.479,0,0,1-.478-.478Zm0,5.1a.479.479,0,0,1,.478-.478H4.621a.479.479,0,0,1,.478.478V17.37a.479.479,0,0,1-.478.478H3.028a.479.479,0,0,1-.478-.478ZM15.936,2.55H14.023V.637A.639.639,0,0,0,13.386,0H12.111a.639.639,0,0,0-.637.637V2.55h-5.1V.637A.639.639,0,0,0,5.737,0H4.462a.639.639,0,0,0-.637.637V2.55H1.912A1.913,1.913,0,0,0,0,4.462V6.374H17.848V4.462A1.913,1.913,0,0,0,15.936,2.55Z" fill="#707070"/>
</svg>
