<svg xmlns="http://www.w3.org/2000/svg" width="30.859" height="29.035" viewBox="0 0 30.859 29.035">
  <g id="Groupe_320" data-name="Groupe 320" transform="translate(-936.345 202.724)">
    <path id="Tracé_23648" data-name="Tracé 23648" d="M936.345-148.7a.949.949,0,0,1,.775-.732.912.912,0,0,1,.153-.013h3.479c.034,0,.067,0,.115.007.005.054.014.1.014.152,0,.5,0,.994,0,1.491,0,.142-.05.171-.178.169-.52-.006-1.04,0-1.56,0a.908.908,0,0,0-.986.981q0,7.67,0,15.34,0,2.22,0,4.439a.91.91,0,0,0,1.014,1.017h11.141c.061,0,.121,0,.223.009l-.554.61c-.331.363-.658.73-1,1.087a.38.38,0,0,1-.246.111q-5.69.007-11.381,0a.948.948,0,0,1-.9-.46,2.5,2.5,0,0,1-.123-.28Z" transform="translate(0 -51.448)" fill="#707070"/>
    <path id="Tracé_23649" data-name="Tracé 23649" d="M1388.5-202.724a2.4,2.4,0,0,1,.363.141.876.876,0,0,1,.452.8c0,1.2.006,2.4,0,3.6a.9.9,0,0,1-.922.922c-.285.006-.571.005-.856,0a.9.9,0,0,1-.943-.937c-.007-.331,0-.662,0-.994q0-1.182,0-2.364c0-.709.157-.934.813-1.162Z" transform="translate(-434.803)" fill="#707070"/>
    <path id="Tracé_23650" data-name="Tracé 23650" d="M1097.127-202.724a.489.489,0,0,0,.063.024.9.9,0,0,1,.769.962c0,1.113,0,2.226,0,3.34,0,.086,0,.171,0,.257a.894.894,0,0,1-.881.872q-.479.013-.959,0a.879.879,0,0,1-.873-.861c-.011-1.239-.008-2.477,0-3.716a.886.886,0,0,1,.672-.834l.146-.042Z" transform="translate(-153.444)" fill="#707070"/>
    <path id="Tracé_23651" data-name="Tracé 23651" d="M1716.644,224.821a1.788,1.788,0,0,1-.5.745c-.233.232-.453.478-.7.74l-3.055-3.158.7-.634.039-.033a1.562,1.562,0,0,1,2.144-.1,3,3,0,0,1,1.346,2.024c0,.015.016.029.025.043Z" transform="translate(-749.44 -410.161)" fill="#707070"/>
    <path id="Tracé_23652" data-name="Tracé 23652" d="M1423.155,293.57l3.095,3.069c-.169.164-.343.328-.511.5q-3.068,3.075-6.134,6.151c-.25.251-.485.517-.746.756a3.83,3.83,0,0,1-1.341.774,17.757,17.757,0,0,1-2.648.754.976.976,0,0,1-.221.017c-.257-.012-.4-.135-.406-.391a2.1,2.1,0,0,1,.066-.609c.249-.872.506-1.742.781-2.606a2.376,2.376,0,0,1,.613-.94q3.694-3.709,7.391-7.415C1423.117,293.6,1423.143,293.581,1423.155,293.57Z" transform="translate(-461.511 -479.277)" fill="#707070"/>
    <path id="Tracé_23653" data-name="Tracé 23653" d="M1495.266-134.3c-.006-.073-.012-.122-.012-.17q0-4.328,0-8.656,0-1.8,0-3.6a.9.9,0,0,0-.963-.967c-.5,0-1.006,0-1.509,0h-.235c-.005-.065-.013-.115-.013-.164,0-.5,0-.994,0-1.491,0-.126.035-.165.165-.165,1.148,0,2.3,0,3.445,0a.914.914,0,0,1,.935.934q0,4.105,0,8.211c0,1.314,0,2.628,0,3.943a.373.373,0,0,1-.069.232c-.548.614-1.1,1.221-1.657,1.829A.791.791,0,0,1,1495.266-134.3Z" transform="translate(-537.114 -51.383)" fill="#707070"/>
    <path id="Tracé_23654" data-name="Tracé 23654" d="M1075.9,117.08h-6.685c-.424,0-.588-.165-.588-.593q0-.334,0-.668c0-.386.169-.555.554-.555l6.445,0h6.8c.074,0,.149,0,.223,0a.461.461,0,0,1,.505.514q0,.4,0,.806a.457.457,0,0,1-.506.5H1075.9Z" transform="translate(-127.75 -307.083)" fill="#707070"/>
    <path id="Tracé_23655" data-name="Tracé 23655" d="M1075.868,327.07h6.685c.44,0,.589.146.59.583,0,.234,0,.469,0,.7a.462.462,0,0,1-.525.528c-.954,0-1.908,0-2.863,0l-10.525,0a1.171,1.171,0,0,1-.3-.029.444.444,0,0,1-.314-.46c-.006-.257,0-.514,0-.771,0-.383.171-.553.556-.553h6.7Z" transform="translate(-127.729 -511.628)" fill="#707070"/>
    <path id="Tracé_23656" data-name="Tracé 23656" d="M1203.834-149.54c.851,0,1.7,0,2.554,0,.124,0,.172.026.17.159q-.01.745,0,1.491c0,.122-.027.172-.16.171q-2.571-.006-5.142,0c-.126,0-.153-.048-.152-.161,0-.5.006-.994,0-1.491,0-.143.052-.17.18-.169.851,0,1.7,0,2.554,0Z" transform="translate(-255.678 -51.356)" fill="#707070"/>
  </g>
</svg>
