<svg id="Composant_26_1" data-name="Composant 26 – 1" xmlns="http://www.w3.org/2000/svg" width="28.839" height="28.257" viewBox="0 0 28.839 28.257">
  <path id="Tracé_23698" data-name="Tracé 23698" d="M-600.219-33.266V-52.419a.555.555,0,0,0,.042-.1,2.289,2.289,0,0,1,1.692-1.873,7.285,7.285,0,0,1,.864-.147c0-.309-.007-.618,0-.926a1.888,1.888,0,0,1,2.19-1.917,1.853,1.853,0,0,1,1.573,1.667c.023.4,0,.8,0,1.2h2.875c0-.407-.02-.8,0-1.19a1.874,1.874,0,0,1,2.042-1.693,1.879,1.879,0,0,1,1.722,1.893c.009.326,0,.652,0,.982h2.867c0-.425-.028-.83.006-1.23a1.868,1.868,0,0,1,1.854-1.664,1.873,1.873,0,0,1,1.867,1.683c.031.4.005.8.005,1.216h2.861c0-.392-.019-.767,0-1.139a1.877,1.877,0,0,1,1.855-1.759,1.864,1.864,0,0,1,1.873,1.643,11.276,11.276,0,0,1,.008,1.239,7.222,7.222,0,0,1,.842.124,2.348,2.348,0,0,1,1.787,2.4q0,9.236-.018,18.472a4.688,4.688,0,0,1-.061.785,4.269,4.269,0,0,1-4.294,3.594c-1.117.009-2.234,0-3.351,0q-8.335,0-16.67,0a4.154,4.154,0,0,1-4.026-2.511A8.747,8.747,0,0,1-600.219-33.266ZM-573.3-49.458h-24.99c-.005.067-.012.113-.012.16q0,7.913,0,15.825a2.346,2.346,0,0,0,2.437,2.406q10.066.009,20.133-.007a2.628,2.628,0,0,0,1.084-.238,2.282,2.282,0,0,0,1.354-2.218q.006-7.856,0-15.712C-573.292-49.308-573.3-49.373-573.3-49.458Z" transform="translate(600.219 57.418)" fill="#707070"/>
  <path id="Tracé_23699" data-name="Tracé 23699" d="M-452.139,75.5c.628,0,1.257,0,1.885,0a.979.979,0,0,1,1.085,1.08q.011,1.9,0,3.8a.981.981,0,0,1-1.086,1.08q-1.885.005-3.77,0a.982.982,0,0,1-1.095-1.1q0-1.885,0-3.77a.98.98,0,0,1,1.1-1.093C-453.4,75.495-452.768,75.5-452.139,75.5Z" transform="translate(466.61 -64.973)" fill="#707070"/>
  <path id="Tracé_23700" data-name="Tracé 23700" d="M-451.955,167.868c.647,0,1.294,0,1.941,0a.953.953,0,0,1,1.019,1.022q.007,1.955,0,3.911a.926.926,0,0,1-.948,1q-2.025.032-4.051,0a.91.91,0,0,1-.947-.949q-.03-2.011,0-4.023a.938.938,0,0,1,1.018-.967C-453.268,167.864-452.612,167.868-451.955,167.868Z" transform="translate(466.458 -150.03)" fill="#707070"/>
  <path id="Tracé_23701" data-name="Tracé 23701" d="M-541.158,78.476c0,.638,0,1.276,0,1.913a.964.964,0,0,1-1.047,1.054q-1.927.009-3.854,0a.957.957,0,0,1-1.038-1.035q-.011-1.941,0-3.883a.959.959,0,0,1,1.061-1.039q1.913-.006,3.826,0a.962.962,0,0,1,1.052,1.048C-541.154,77.182-541.158,77.829-541.158,78.476Z" transform="translate(551.31 -64.961)" fill="#707070"/>
  <path id="Tracé_23702" data-name="Tracé 23702" d="M-544.112,167.868c.647,0,1.294,0,1.941,0a.938.938,0,0,1,1.012,1q.012,1.983,0,3.967a.9.9,0,0,1-.915.971q-2.053.034-4.106,0a.891.891,0,0,1-.912-.945q-.018-2.011,0-4.023a.927.927,0,0,1,.984-.965C-545.443,167.862-544.777,167.868-544.112,167.868Z" transform="translate(551.307 -150.029)" fill="#707070"/>
  <path id="Tracé_23703" data-name="Tracé 23703" d="M-359.828,167.87c.638,0,1.275,0,1.913,0a.944.944,0,0,1,1.027,1.011q.012,1.969,0,3.939a.917.917,0,0,1-.959.991q-2.011.028-4.023,0a.918.918,0,0,1-.957-.993q-.014-1.969,0-3.939a.944.944,0,0,1,1.031-1.008C-361.141,167.866-360.485,167.87-359.828,167.87Z" transform="translate(381.629 -150.032)" fill="#707070"/>
  <path id="Tracé_23704" data-name="Tracé 23704" d="M-356.871,78.5c0,.628,0,1.257,0,1.885a.97.97,0,0,1-1.067,1.064q-1.9.007-3.8,0a.975.975,0,0,1-1.077-1.083q-.006-1.9,0-3.8a.972.972,0,0,1,1.082-1.077q1.885,0,3.77,0a.976.976,0,0,1,1.091,1.1C-356.868,77.226-356.871,77.864-356.871,78.5Zm-2.971-1.832c-.507,0-1.014.007-1.52,0-.208,0-.283.071-.282.277q.009,1.52,0,3.041c0,.217.073.3.295.294q1.506-.013,3.012,0c.22,0,.3-.074.3-.293q-.01-1.52,0-3.041c0-.2-.072-.283-.281-.278C-358.829,76.677-359.336,76.67-359.842,76.67Z" transform="translate(381.615 -64.968)" fill="#707070"/>
</svg>
