<svg xmlns="http://www.w3.org/2000/svg" xmlns:xlink="http://www.w3.org/1999/xlink" width="50.855" height="27.387" viewBox="0 0 50.855 27.387">
  <defs>
    <clipPath id="clip-path">
      <rect width="50.855" height="27.387" fill="none"/>
    </clipPath>
  </defs>
  <g id="Grille_de_répétition_2" data-name="Grille de répétition 2" clip-path="url(#clip-path)">
    <g id="Groupe_9506" data-name="Groupe 9506" transform="translate(-459.133 327.289)">
      <g id="view" transform="translate(459.133 -327.289)">
        <path id="Tracé_23710" data-name="Tracé 23710" d="M459.133-316.625v-.043a.869.869,0,0,0,.114-.087,37.728,37.728,0,0,1,6.351-5.385,29.811,29.811,0,0,1,10.268-4.613,21.128,21.128,0,0,1,7.528-.348,21.73,21.73,0,0,1,8.362,3.032,31.537,31.537,0,0,1,6.757,5.612c.551.593,1.079,1.206,1.62,1.812-.062.079-.1.136-.149.189a31.006,31.006,0,0,1-10.414,8.129,22.547,22.547,0,0,1-7.408,2.117c-.417.043-.834.082-1.25.123H478.99c-.1-.015-.209-.034-.314-.043-.4-.036-.795-.056-1.19-.1a24.093,24.093,0,0,1-8.17-2.565,35.476,35.476,0,0,1-7.629-5.375C460.814-314.968,459.983-315.807,459.133-316.625Zm20.7-8.826a9.315,9.315,0,0,0-5.011,1.456,8.608,8.608,0,0,0-2.018,12.9,9.31,9.31,0,0,0,12.181,1.666,8.622,8.622,0,0,0,3.316-10.426A9.1,9.1,0,0,0,479.835-325.451Z" transform="translate(-459.133 327.289)" fill="#efcc0b"/>
      </g>
      <path id="Tracé_23711" data-name="Tracé 23711" d="M836.679-188.1a5.04,5.04,0,0,1-4.414,4.906,5.087,5.087,0,0,1-5.576-3.567,4.934,4.934,0,0,1,3.544-6.106,5.073,5.073,0,0,1,6.322,3.818C836.621-188.736,836.639-188.415,836.679-188.1Z" transform="translate(-351.664 -128.504)" fill="#efcc0b"/>
    </g>
  </g>
</svg>
