<svg xmlns="http://www.w3.org/2000/svg" width="27.111" height="25" viewBox="0 0 27.111 25">
  <g id="Groupe_10146" data-name="Groupe 10146" transform="translate(-995.255 33.418)">
    <path id="Tracé_23771" data-name="Tracé 23771" d="M1022.366-26v11.066a.977.977,0,0,0-.047.119,1.822,1.822,0,0,1-1.706,1.488c-.932.06-1.87.024-2.8.03h-.39v.342q0,1.76,0,3.521c0,.724-.291,1.017-1.006,1.017h-15.2c-.719,0-1.011-.291-1.012-1.01q0-1.774,0-3.548V-13.3c-.986,0-1.929,0-2.872,0a1.937,1.937,0,0,1-2.075-2.064q0-5.11,0-10.219a1.931,1.931,0,0,1,2.075-2.061q1.284,0,2.568,0h.3v-.347q0-2.211,0-4.421c0-.718.294-1.007,1.016-1.007h15.17c.74,0,1.028.284,1.029,1.021q0,2.211,0,4.421v.334h.317c.882,0,1.765,0,2.647,0a1.838,1.838,0,0,1,1.6.785A5.027,5.027,0,0,1,1022.366-26Zm-4.947,11.063h2.819c.429,0,.487-.058.487-.488q0-4.473,0-8.946c0-.415,0-.829,0-1.244,0-.292-.089-.38-.375-.384-.238,0-.476,0-.715,0h-22.26c-.393,0-.477.065-.477.388q0,5.148,0,10.3c0,.285.094.377.384.378q1.376,0,2.753,0a1.155,1.155,0,0,0,.169-.028v-.324c0-1.182,0-2.365,0-3.547,0-.685.3-.983.986-.983h15.246c.682,0,.981.3.982.987,0,1.182,0,2.365,0,3.547Zm-15.556-3.231v8.1h13.9v-8.1Zm13.9-13.587h-13.909v4.1h13.909Z" fill="#707070"/>
    <path id="Tracé_23772" data-name="Tracé 23772" d="M1143.828,37.129a1.16,1.16,0,0,1-1.153-1.163,1.163,1.163,0,1,1,2.327.024A1.154,1.154,0,0,1,1143.828,37.129Z" transform="translate(-127.242 -58.885)" fill="#707070"/>
    <path id="Tracé_23773" data-name="Tracé 23773" d="M1065.6,91.292c-1.235,0-2.469.005-3.7,0a.809.809,0,0,1-.776-1.134.84.84,0,0,1,.853-.5c1.155,0,2.31,0,3.466,0,1.27,0,2.54,0,3.81,0a.821.821,0,1,1,.028,1.638C1068.056,91.294,1066.831,91.292,1065.6,91.292Z" transform="translate(-56.793 -106.224)" fill="#707070"/>
    <path id="Tracé_23774" data-name="Tracé 23774" d="M1065.629,113.508c1.226,0,2.451-.007,3.677,0a.807.807,0,0,1,.8,1.1.764.764,0,0,1-.6.5,1.89,1.89,0,0,1-.342.028q-3.557,0-7.115,0a1.512,1.512,0,0,1-.443-.056.809.809,0,0,1-.537-.849.8.8,0,0,1,.728-.719c.281-.019.564-.011.846-.011h2.989Z" transform="translate(-56.8 -126.814)" fill="#707070"/>
  </g>
</svg>
