<?xml version="1.0" encoding="UTF-8"?>
<svg id="Calque_1" data-name="Calque 1" xmlns="http://www.w3.org/2000/svg" xmlns:xlink="http://www.w3.org/1999/xlink" viewBox="0 0 119.22 135.29">
  <defs>
    <style>
      .cls-1 {
        fill: url(#Dégradé_sans_nom_175-5);
      }

      .cls-2 {
        fill: url(#Dégradé_sans_nom_175-4);
      }

      .cls-3 {
        fill: url(#Dégradé_sans_nom_175);
      }

      .cls-4 {
        fill: url(#Dégradé_sans_nom_175-3);
      }

      .cls-5 {
        fill: url(#Dégradé_sans_nom_175-2);
      }
    </style>
    <linearGradient id="Dégradé_sans_nom_175" data-name="Dégradé sans nom 175" x1="-47.99" y1="43" x2="202.26" y2="46.07" gradientUnits="userSpaceOnUse">
      <stop offset="0" stop-color="#e94e1b"/>
      <stop offset=".92" stop-color="#ffde00"/>
    </linearGradient>
    <linearGradient id="Dégradé_sans_nom_175-2" data-name="Dégradé sans nom 175" x1="-48.64" y1="96.11" x2="201.6" y2="99.18" xlink:href="#Dégradé_sans_nom_175"/>
    <linearGradient id="Dégradé_sans_nom_175-3" data-name="Dégradé sans nom 175" x1="-48.44" y1="80.1" x2="201.8" y2="83.17" xlink:href="#Dégradé_sans_nom_175"/>
    <linearGradient id="Dégradé_sans_nom_175-4" data-name="Dégradé sans nom 175" x1="-48.45" y1="80.99" x2="201.79" y2="84.06" xlink:href="#Dégradé_sans_nom_175"/>
    <linearGradient id="Dégradé_sans_nom_175-5" data-name="Dégradé sans nom 175" x1="-47.58" y1="9.96" x2="202.66" y2="13.03" xlink:href="#Dégradé_sans_nom_175"/>
  </defs>
  <path class="cls-3" d="m22.45,30.27c1.12-3.27,4.1-4.49,6.74-6,6.96-3.98,14.49-6.4,22.4-7.64.34-.05.69-.01,1.03-.02.62-.47,1.45.09,2.07-.4.83,0,1.65-.01,2.48-.02,1.51-.3,3.03-.3,4.54,0,.69,0,1.38,0,2.06.01.76.53,1.72-.1,2.48.4,6.05.71,11.93,2.11,17.5,4.63,1.7.77,3.63,1.23,4.68,2.99.09.16.17.34.21.51.23.88.2,1.76-.07,2.64-.72,3.9-1.45,7.8-2.17,11.7-1.25,6.79-2.66,13.55-3.25,20.44-.32,3.74-1.17,7.43-1.24,11.21-.02.97-.36,1.91-1.56,2.13-1.32.23-2.06-.39-2.51-1.57-1.93-5.07-3.63-10.25-5.88-15.17-3.19-6.98-6.14-14.15-11.75-19.73-4.23-4.21-12.92-3.89-16.01,2.39-1.71,3.47-2.95,7.11-4.12,10.77-1.78,5.56-3.5,11.13-5.25,16.7-.21.36-.24.76-.22,1.15.05,1.22-1.02,2.26-2.22,2.02-1.06-.21-1.63-1.16-1.67-2.84-.21-9.49-3.16-18.44-5.45-27.51-.29-1.17-1.07-2.22-1.66-3.3-.52-.96-1.21-1.85-1.18-3.02-.3-.83-.31-1.66,0-2.49Z"/>
  <path class="cls-5" d="m75.39,130.39c-.75,4.03-4.03,4.53-7.89,4.9-4.56-.35-9.14-.06-13.7-.15-.96.08-1.93-.17-2.87.16-2.17-.47-4.44-.37-6.54-1.21-2.46-.99-4.39-2.45-4.63-5.36-.26-1.65-.24-3.29-.01-4.94.17-2.96.75-5.86,1.38-8.75,1.08-5.68,2.11-11.38,3.24-17.05.95-4.76,1.99-9.49,3.04-14.23,1.58-7.14,3.2-14.27,4.82-21.39.24-1.06.44-2.19,1.61-2.71.69-.31,1.38-.3,2.07,0,.89.41,1.26,1.23,1.63,2.04,5.31,11.4,9.47,23.17,12.12,35.5,1.04,4.86,2.09,9.74,3.19,14.59.27,3.47,1.05,6.85,1.67,10.26.35,1.94.58,3.9.86,5.85.23.83.24,1.67,0,2.5Z"/>
  <path class="cls-4" d="m109.65,108.05c-2.59,3.61-5.4,7.02-8.62,10.1-2.92,2.79-6.09,5.21-9.53,7.31-.62.13-.61-.32-.65-.72-.07-.73.12-1.48-.14-2.2-.02-.68-.03-1.37-.05-2.05.37-.75.1-1.54.19-2.31.08-1.03-.18-2.07.16-3.08.02-.96.05-1.92.07-2.88.23-.69.39-1.37-.07-2.04,0,0,.07-.12.07-.12.55-.88.34-1.87.38-2.83.53-.76-.1-1.72.4-2.49,0-.69,0-1.38,0-2.06.55-.91-.12-1.99.4-2.9.23-5.34.93-10.63,1.71-15.91.76-5.14,1.47-10.29,2.52-15.37,1.12-5.43,2.54-10.8,3.98-16.15,1.14-4.24,2.49-8.42,3.75-12.63.16-.52.22-1.2.79-1.35.71-.2.78.62,1.14.98,7.03,7.28,10.72,16.23,12.36,25.98.91,5.38.84,10.89.34,16.41-.5,5.6-1.83,10.93-3.87,16.11-1.41,3.58-3.14,7.03-5.35,10.21Z"/>
  <path class="cls-2" d="m19.95,118.8c-1.69.2-2.58-1.54-4.12-1.72-.1-1.26-1.35-1.47-2.05-2.15-5.95-5.79-9.25-13.01-11.58-20.81C-.03,86.69-.29,79.07.22,71.48c.61-8.9,3.13-17.38,7.46-25.25.23-.41.56-.77,1.11-1.52.75,3.5,1.43,6.65,2.09,9.81,1.73,8.37,3.56,16.73,4.78,25.19.96,6.62,2.25,13.19,2.74,19.89.42,5.72,1.39,11.4,1.59,17.15.28.69.32,1.37-.03,2.05Z"/>
  <path class="cls-1" d="m93.52,10c.43-5.9,6.69-10.81,12.62-9.89,5.96.92,10.14,5.02,10.54,10.3.3.97.3,1.93,0,2.9-.45,5.94-5.54,10.35-11.95,10.34-5.81,0-10.81-4.44-11.21-9.93-.31-1.24-.31-2.49,0-3.73Z"/>
</svg>