<svg id="Groupe_10017" data-name="Groupe 10017" xmlns="http://www.w3.org/2000/svg" width="253.941" height="255.657" viewBox="0 0 253.941 255.657">
    <path id="Tracé_23748" data-name="Tracé 23748" d="M3176.313,2245.3h253.941v255.487H3176.313Z" transform="translate(-3176.313 -2245.298)" fill="none" fill-rule="evenodd"/>
    <path id="Tracé_23749" data-name="Tracé 23749" d="M3241.807,2421.236l-65.495,63v150.049h143.8l47.622-46.412.058-113.777-48.182-52.859Z" transform="translate(-3176.313 -2378.627)" fill="#b68b09" fill-rule="evenodd" style="isolation: isolate"/>
    <g id="Groupe_10016" data-name="Groupe 10016" transform="translate(60.387 33.925)">
        <path id="Tracé_23750" data-name="Tracé 23750" d="M3494.3,2415.869a18.937,18.937,0,0,1,3.284,2.754q21.434,21.462,42.922,42.871a8.425,8.425,0,0,1,2.71,6.489q-.1,56.086-.06,112.173c0,3.686-1.557,5.224-5.243,5.223l-120.43-.012c-3.443,0-5.079-1.611-5.079-5.014q0-79.419-.032-158.838c0-2.518.632-4.452,2.939-5.645Zm-73.208,157.774c0,3.032.006,3.038,3.056,3.038q53.926,0,107.853,0c2.442,0,2.459-.007,2.46-2.508q.011-50.785.043-101.571c0-1.653-.528-2.159-2.165-2.152q-19.2.08-38.4.023c-3.96-.005-5.405-1.45-5.412-5.41q-.028-19.022-.008-38.044c0-2.5.01-2.494-2.478-2.494q-31.136,0-62.271-.006c-2.658,0-2.673.006-2.673,2.689q-.006,36.7,0,73.4Q3421.091,2537.124,3421.092,2573.643Zm76.13-136.784c0,7.65.007,15.3-.028,22.948-.006,1.271.231,2.01,1.753,2,9.2-.044,18.407-.019,27.61-.026a3.66,3.66,0,0,0,.731-.1l-30.066-30.064C3497.222,2433.292,3497.223,2435.075,3497.222,2436.858Z" transform="translate(-3412.374 -2415.869)" fill="#fff"/>
        <path id="Tracé_23751" data-name="Tracé 23751" d="M3602.109,2678.236a23.713,23.713,0,0,0-9.354-6.2,96.586,96.586,0,0,0-10.2-2.956q-1.747-.421-3.656-.842-2.2-.483-4.022-.972a27.119,27.119,0,0,1-7.1-2.687,4.911,4.911,0,0,1-2.3-4.528,6.47,6.47,0,0,1,3.115-5.61,14.3,14.3,0,0,1,6.29-2.137,28.923,28.923,0,0,1,3.7-.222,27.985,27.985,0,0,1,3.981.265,13.916,13.916,0,0,1,6.29,2.3c2.252,1.645,3.526,4.093,3.9,7.484l.176,1.62h11.819l-.081-1.894c-.286-6.681-2.905-11.941-7.784-15.633a27.923,27.923,0,0,0-14.316-5.2v-10.347h-7.678v10.271a25.974,25.974,0,0,0-14.4,5.265,17.5,17.5,0,0,0-6.935,14.231,15.767,15.767,0,0,0,5.431,12.474c3.357,2.914,8.564,5.127,15.9,6.757q.373.083.752.164,3.874.824,6.926,1.655a41.212,41.212,0,0,1,8.152,2.932,6.315,6.315,0,0,1,3.559,6.121,7.383,7.383,0,0,1-3.564,6.479,16.869,16.869,0,0,1-8.147,2.538q-1.135.092-2.357.092a26.111,26.111,0,0,1-5.321-.523,19.209,19.209,0,0,1-6.572-2.632c-3.088-1.994-4.777-5.03-5.166-9.28l-.151-1.651h-11.748l.069,1.883a23.14,23.14,0,0,0,7.682,16.945c3.8,3.445,9.133,5.547,15.886,6.278v10.427h7.678v-10.185c6.586-.328,12.088-2.292,16.377-5.854a18.991,18.991,0,0,0,7.26-15.176C3606.191,2685.082,3604.818,2681.16,3602.109,2678.236Z" transform="translate(-3515.239 -2574.992)" fill="#fff"/>
    </g>
</svg>
