<svg xmlns="http://www.w3.org/2000/svg" width="253.941" height="253.941" viewBox="0 0 253.941 253.941">
    <g id="Groupe_10023" data-name="Groupe 10023" transform="translate(0 0)">
        <g id="Groupe_10014" data-name="Groupe 10014">
            <path id="Tracé_23743" data-name="Tracé 23743" d="M3046.892,909.991h253.941v253.941H3046.892Z" transform="translate(-3046.892 -909.991)" fill="none" fill-rule="evenodd"/>
            <path id="Tracé_23744" data-name="Tracé 23744" d="M3211.022,1226.773h-164.13v-122.2l47.16-70.07h10.884v96.135l54.415-51.768,3.533.087L3192,1052.99l47.16,51.768-65.3,66.554h79.811Z" transform="translate(-3046.892 -972.832)" fill="#28364a" fill-rule="evenodd"/>
            <g id="Groupe_10013" data-name="Groupe 10013" transform="translate(45.281 56.07)">
                <path id="e" d="M3302.781,1156.6a4.1,4.1,0,0,1,3.809,4.328v3.548a4.108,4.108,0,0,1-3.809,4.331H3147.836a4.108,4.108,0,0,1-3.809-4.331V1034.6a4.106,4.106,0,0,1,3.809-4.331h5.441a4.105,4.105,0,0,1,3.809,4.331v122Zm-62.553-106.125,18.07,18-22.862,26.3-17.653-20.062a3.471,3.471,0,0,0-5.369,0l-37.775,42.5a4.753,4.753,0,0,0-.066,6.095l9.048,10.607a3.49,3.49,0,0,0,5.431.036l26.068-29.621,17.619,20.025a3.5,3.5,0,0,0,5.4,0l34.675-39.4,18.2,18.618,7.255-64.08Z" transform="translate(-3144.027 -1030.27)" fill="#fff"/>
            </g>
        </g>
    </g>
</svg>
