<svg id="Composant_305_1" data-name="Composant 305 – 1" xmlns="http://www.w3.org/2000/svg" width="255" height="254" viewBox="0 0 255 254">
    <g id="Composant_304_1" data-name="Composant 304 – 1">
        <g id="Composant_303_1" data-name="Composant 303 – 1">
            <g id="Composant_302_1" data-name="Composant 302 – 1">
                <g id="Groupe_10004" data-name="Groupe 10004" transform="translate(0.48 -0.184)">
                    <rect id="Rectangle_4088" data-name="Rectangle 4088" width="255" height="254" transform="translate(-0.48 0.184)" fill="none"/>
                    <path id="Tracé_23730" data-name="Tracé 23730" d="M2165.932,1067.518l86.443,53.091h140.693V996.783l-62.886-61.192-22.027,26.915L2266.1,935.591l-45.288,50.9,31.566,30.431Z" transform="translate(-2139.127 -866.483)" fill="#28364a"/>
                    <g id="Groupe_10003" data-name="Groupe 10003" transform="translate(26.805 54.534)">
                        <path id="Tracé_23731" data-name="Tracé 23731" d="M2256.021,983.028a33,33,0,0,0,37.117-39.007c-2.922-17.527-21.764-30.071-39.121-25.947a33.017,33.017,0,0,0,2,64.955Z" transform="translate(-2190.151 -917.285)" fill="#fff"/>
                        <g id="Groupe_10002" data-name="Groupe 10002" transform="translate(0 6.457)">
                            <path id="Tracé_23732" data-name="Tracé 23732" d="M2391.149,979.747a26.03,26.03,0,0,0,29.276-30.766c-2.3-13.824-17.167-23.718-30.857-20.466a26.042,26.042,0,0,0,1.581,51.232Z" transform="translate(-2245.361 -927.893)" fill="#fff"/>
                            <path id="Tracé_23733" data-name="Tracé 23733" d="M2426.89,1038.415c-9.351-2.078-18.748-3.749-28.1-5.737-5.241,7.681-25.255,7.727-30.451.045-9.4,1.808-18.749,3.751-28.146,5.648q-.586,2-1.174,3.989c8.175,1.623,16.359,3.193,24.515,5.005q5.167,17.167,10.186,34.389c28.469.009,59.044.015,65.955-.013C2435.429,1067.284,2431.227,1052.828,2426.89,1038.415Z" transform="translate(-2233.664 -968.897)" fill="#fff"/>
                            <path id="Tracé_23734" data-name="Tracé 23734" d="M2291.945,1057.411c-8.156-1.812-16.341-3.382-24.515-5.006-3.707-.736-7.412-1.482-11.111-2.269-6.645,9.738-32.019,9.8-38.607.057-11.916,2.292-23.77,4.755-35.685,7.161-5.383,18.328-10.826,36.6-16.094,54.987,30.414,0,127.674.057,142.223,0q-3.017-10.272-6.025-20.542Q2297.082,1074.587,2291.945,1057.411Z" transform="translate(-2165.932 -975.729)" fill="#fff"/>
                        </g>
                    </g>
                </g>
            </g>
        </g>
    </g>
</svg>
