<svg id="Groupe_10026" data-name="Groupe 10026" xmlns="http://www.w3.org/2000/svg" width="253.941" height="255.656" viewBox="0 0 253.941 255.656">
    <g id="Groupe_10019" data-name="Groupe 10019" transform="translate(0 0)">
        <path id="Tracé_23752" data-name="Tracé 23752" d="M3176.313,2245.3h253.94v255.656h-253.94Z" transform="translate(-3176.313 -2245.298)" fill="none" fill-rule="evenodd"/>
        <path id="Tracé_23753" data-name="Tracé 23753" d="M3376.619,2532.4v115.139l-78.577,64.849H3176.313V2587.464l60.542-56.67Z" transform="translate(-3176.313 -2456.73)" fill="#28364a" style="isolation: isolate"/>
        <g id="Groupe_10018" data-name="Groupe 10018" transform="translate(51.016 35.776)">
            <path id="Tracé_23754" data-name="Tracé 23754" d="M3492.711,2411.133h9.124c6.416,0,12.832-.027,19.248.011a7.009,7.009,0,0,1,7.3,7.139c.008.227,0,.454,0,.681q0,56.988-.012,113.975c0,7.012-2.926,12.469-9.383,15.491a18.04,18.04,0,0,1-7.372,1.65q-59.191.15-118.383.053c-8.017-.007-14.118-4.761-16.2-12.492a18.37,18.37,0,0,1-.531-4.715q-.041-56.988-.018-113.975c0-5.021,2.794-7.81,7.8-7.815q12.946-.016,25.891,0h2.04c0-2.957,0-5.776,0-8.6.01-5.257,2.694-7.963,7.974-7.977,7.722-.021,15.444-.006,23.166-.006h2.191c0-1.56-.034-2.91.007-4.257.122-4.076,2.942-7.016,6.768-7.091a6.893,6.893,0,0,1,7.043,6.805c.093,1.411.015,2.832.015,4.543h2.1q11.5,0,23,0c5.617.007,8.225,2.62,8.233,8.229C3492.715,2405.5,3492.711,2408.211,3492.711,2411.133Zm-102.28,14v2q0,52.637,0,105.273c0,3.184.6,3.8,3.746,3.8h116.5c3.194,0,3.784-.582,3.784-3.742q0-52.722,0-105.444v-1.823h-21.746v1.77c0,1.931.006,3.861,0,5.792-.021,5.262-2.721,7.978-7.976,7.98-21.346.008-42.693-.067-64.038.056-4.916.029-8.918-2.573-8.523-8.533.156-2.351.025-4.721.025-7.123Zm88.243,1.573v-18.149H3426.2v18.149Z" transform="translate(-3376.483 -2383.204)" fill="#fff"/>
            <path id="Tracé_23755" data-name="Tracé 23755" d="M3596.21,2718.734c-3.887-3.851-7.364-7.191-10.721-10.649a6.909,6.909,0,0,1,1-10.778c2.824-1.88,6.3-1.473,9,1.158,2.928,2.853,5.8,5.764,8.672,8.672a20.275,20.275,0,0,1,1.457,1.983c1.111-1.312,1.848-2.312,2.714-3.183,2.762-2.777,5.463-5.628,8.393-8.218a6.713,6.713,0,0,1,9.255.557,6.954,6.954,0,0,1,.289,9.307c-.437.521-.927,1-1.408,1.479-3.091,3.085-6.186,6.165-9.415,9.381,2.969,2.956,5.865,5.827,8.744,8.716a25.515,25.515,0,0,1,2.3,2.5,6.762,6.762,0,0,1-.5,8.875,6.664,6.664,0,0,1-8.98.8c-2.535-2.08-4.778-4.518-7.13-6.818-1.376-1.347-2.713-2.734-4.409-4.448-.757.9-1.395,1.755-2.138,2.511-2.587,2.632-5.171,5.27-7.832,7.826-3.125,3-7.346,3.02-10.2.136-2.692-2.717-2.59-6.857.36-9.92,2.875-2.985,5.835-5.889,8.792-8.793A9.99,9.99,0,0,1,3596.21,2718.734Z" transform="translate(-3529.694 -2614.947)" fill="#fff"/>
        </g>
        <path id="Tracé_23756" data-name="Tracé 23756" d="M0,0H52.479V18.149H0Z" transform="translate(100.729 61.129)" fill="#4b6683"/>
    </g>
</svg>
