<svg xmlns="http://www.w3.org/2000/svg" width="254" height="254" viewBox="0 0 254 254">
    <g id="Groupe_10061" data-name="Groupe 10061" transform="translate(-515 -861)">
        <g id="Composant_306_1" data-name="Composant 306 – 1" transform="translate(515 861)">
            <g id="Groupe_10021" data-name="Groupe 10021" transform="translate(0.284 -0.184)">
                <g id="Groupe_10015" data-name="Groupe 10015" transform="translate(0 0)">
                    <rect id="Rectangle_4090" data-name="Rectangle 4090" width="254" height="254" transform="translate(-0.284 0.184)" fill="none"/>
                    <path id="Tracé_23745" data-name="Tracé 23745" d="M2227.823,1885.4v-86.366l108.549-127.671h18.422v41.305l50.788,7.51,18.139,78.855-59.057,86.366Z" transform="translate(-2227.528 -1631.557)" fill="#8e540e" fill-rule="evenodd" opacity="0.43"/>
                    <path id="Tracé_23746" data-name="Tracé 23746" d="M2464.261,1754.793v43.382a2.983,2.983,0,0,1-3.1,3.1h-30.987a2.983,2.983,0,0,1-3.1-3.1v-6.2a2.984,2.984,0,0,1,3.1-3.1h21.691v-34.086a2.982,2.982,0,0,1,3.1-3.1h6.2a2.983,2.983,0,0,1,3.1,3.1Zm40.283,34.086a51.487,51.487,0,0,0-7.069-26.436,52.514,52.514,0,0,0-19.173-19.173,52.967,52.967,0,0,0-52.872,0,52.512,52.512,0,0,0-19.173,19.173,52.965,52.965,0,0,0,0,52.871,52.511,52.511,0,0,0,19.173,19.173,52.967,52.967,0,0,0,52.872,0,52.513,52.513,0,0,0,19.173-19.173A51.487,51.487,0,0,0,2504.544,1788.879Zm3.686-48.628,9.625-7.253a3.628,3.628,0,0,1,5.081.714l6.55,8.692a3.628,3.628,0,0,1-.714,5.08l-10.436,7.864a74.968,74.968,0,0,1-2.073,70.86,74.039,74.039,0,0,1-27.065,27.065,74.846,74.846,0,0,1-74.659,0,74.04,74.04,0,0,1-27.065-27.065,74.848,74.848,0,0,1,0-74.659,74.036,74.036,0,0,1,27.065-27.065,72.038,72.038,0,0,1,28.26-9.455v-7.774h-7.256a3.628,3.628,0,0,1-3.628-3.628v-7.256a3.628,3.628,0,0,1,3.628-3.628h36.277a3.628,3.628,0,0,1,3.628,3.628v7.256a3.628,3.628,0,0,1-3.628,3.628h-7.255v8.288a72.028,72.028,0,0,1,24.633,8.942A74.262,74.262,0,0,1,2508.23,1740.251Z" transform="translate(-2326.414 -1649.409)" fill-rule="evenodd" opacity="0.3" style="isolation: isolate"/>
                    <path id="Tracé_23747" data-name="Tracé 23747" d="M2464.261,1733.411v43.382a2.984,2.984,0,0,1-3.1,3.1h-30.987a2.984,2.984,0,0,1-3.1-3.1v-6.2a2.984,2.984,0,0,1,3.1-3.1h21.691v-34.085a2.983,2.983,0,0,1,3.1-3.1h6.2a2.983,2.983,0,0,1,3.1,3.1Zm40.283,34.085a51.488,51.488,0,0,0-7.069-26.436,52.513,52.513,0,0,0-19.173-19.173,52.967,52.967,0,0,0-52.872,0,52.512,52.512,0,0,0-19.173,19.173,52.966,52.966,0,0,0,0,52.871,52.512,52.512,0,0,0,19.173,19.173,52.967,52.967,0,0,0,52.872,0,52.514,52.514,0,0,0,19.173-19.173A51.487,51.487,0,0,0,2504.544,1767.5Zm3.686-48.628,9.625-7.253a3.627,3.627,0,0,1,5.081.714l6.55,8.692a3.628,3.628,0,0,1-.714,5.081l-10.436,7.864a74.968,74.968,0,0,1-2.073,70.86,74.037,74.037,0,0,1-27.065,27.065,74.845,74.845,0,0,1-74.659,0,74.037,74.037,0,0,1-27.065-27.065,74.848,74.848,0,0,1,0-74.659,74.036,74.036,0,0,1,27.065-27.065,72.038,72.038,0,0,1,28.26-9.455v-7.774h-7.256a3.628,3.628,0,0,1-3.628-3.628v-7.256a3.628,3.628,0,0,1,3.628-3.628h36.277a3.628,3.628,0,0,1,3.628,3.628v7.256a3.628,3.628,0,0,1-3.628,3.628h-7.255v8.288a72.028,72.028,0,0,1,24.633,8.942A74.257,74.257,0,0,1,2508.23,1718.869Z" transform="translate(-2326.414 -1634.13)" fill="#fff" fill-rule="evenodd"/>
                </g>
            </g>
        </g>
    </g>
</svg>
